<?xml version="1.0" encoding="utf-8"?>
<!-- Generator: Adobe Illustrator 22.0.0, SVG Export Plug-In . SVG Version: 6.00 Build 0)  -->
<svg version="1.1" id="Camada_1" xmlns="http://www.w3.org/2000/svg" xmlns:xlink="http://www.w3.org/1999/xlink" x="0px" y="0px"
	 viewBox="0 0 45 48" style="enable-background:new 0 0 45 48;" xml:space="preserve">
<style type="text/css">
	.st0{fill:#80BFAA;}
	.st1{fill:#FFFFFF;}
</style>
<g>
	<circle class="st0" cx="22.5" cy="24" r="17.5"/>
	<path class="st1" d="M20.2,36V23H18v-3.1h2.3v-2.5c0-1.3,0.4-2.3,1.2-3c0.8-0.7,1.9-1.1,3.4-1.1c0.4,0,0.7,0,1.1,0
		c0.4,0,0.8,0.1,1.2,0.1v3.2c-0.2,0-0.3,0-0.5,0c-0.2,0-0.4,0-0.7,0c-0.7,0-1.2,0.1-1.5,0.4c-0.3,0.3-0.4,0.8-0.4,1.5v1.3h3.1V23
		h-2.9v13H20.2z"/>
</g>
</svg>
