<?xml version="1.0" encoding="utf-8"?>
<!-- Generator: Adobe Illustrator 22.0.0, SVG Export Plug-In . SVG Version: 6.00 Build 0)  -->
<svg version="1.1" id="Camada_1" xmlns="http://www.w3.org/2000/svg" xmlns:xlink="http://www.w3.org/1999/xlink" x="0px" y="0px"
	 viewBox="0 0 45 48" style="enable-background:new 0 0 45 48;" xml:space="preserve">
<style type="text/css">
	.st0{fill:#80BFAA;}
	.st1{fill:#FFFFFF;}
</style>
<g>
	<circle class="st0" cx="22.5" cy="24" r="17.5"/>
	<g>
		<path class="st1" d="M28.5,14.1c2.1,0,3.9,1.7,3.9,3.9v12c0,2.1-1.7,3.9-3.9,3.9h-12c-2.1,0-3.9-1.7-3.9-3.9V18
			c0-2.1,1.7-3.9,3.9-3.9H28.5 M28.5,12.5h-12c-3,0-5.5,2.5-5.5,5.5v12c0,3,2.5,5.5,5.5,5.5h12c3,0,5.5-2.5,5.5-5.5V18
			C34,15,31.5,12.5,28.5,12.5L28.5,12.5z M22.6,30.3c-3.5,0-6.3-2.8-6.3-6.3c0-3.5,2.8-6.3,6.3-6.3s6.3,2.8,6.3,6.3
			C28.8,27.5,26,30.3,22.6,30.3z M22.6,19.3c-2.6,0-4.7,2.1-4.7,4.7c0,2.6,2.1,4.7,4.7,4.7c2.6,0,4.7-2.1,4.7-4.7
			C27.2,21.4,25.1,19.3,22.6,19.3z M29.2,15.8c-0.7,0-1.3,0.6-1.3,1.3c0,0.7,0.6,1.3,1.3,1.3c0.7,0,1.3-0.6,1.3-1.3
			C30.5,16.4,29.9,15.8,29.2,15.8z"/>
	</g>
</g>
</svg>
