<?xml version="1.0" encoding="utf-8"?>
<!-- Generator: Adobe Illustrator 22.0.0, SVG Export Plug-In . SVG Version: 6.00 Build 0)  -->
<svg version="1.1" id="Camada_1" xmlns="http://www.w3.org/2000/svg" xmlns:xlink="http://www.w3.org/1999/xlink" x="0px" y="0px"
	 viewBox="0 0 45 48" style="enable-background:new 0 0 45 48;" xml:space="preserve">
<style type="text/css">
	.st0{fill:#80BFAA;}
	.st1{fill-rule:evenodd;clip-rule:evenodd;fill:none;stroke:#FFFFFF;stroke-miterlimit:10;}
	.st2{fill-rule:evenodd;clip-rule:evenodd;fill:#FFFFFF;stroke:#FFFFFF;stroke-miterlimit:10;}
</style>
<g>
	<circle class="st0" cx="22.5" cy="24" r="17.5"/>
	<g>
		<path class="st1" d="M13.4,15h18.2c1.3,0,2.4,1.2,2.4,2.7v12.5c0,1.5-1.1,2.7-2.4,2.7H13.4c-1.3,0-2.4-1.2-2.4-2.7V17.7
			C11,16.2,12.1,15,13.4,15z"/>
		<path class="st2" d="M26,24.2L19.2,28c-0.2,0.1-0.4,0-0.4-0.2l0-7.7c0-0.2,0.2-0.3,0.4-0.2l6.8,3.8C26.2,23.9,26.2,24.1,26,24.2z"
			/>
	</g>
</g>
</svg>
